<svg width="24" height="24" viewBox="0 0 24 24" fill="none" xmlns="http://www.w3.org/2000/svg">
<path fill-rule="evenodd" clip-rule="evenodd" d="M11.5385 0.538452C5.16346 0.538452 0 5.70191 0 12.0769C0 17.1827 3.30288 21.4952 7.88942 23.024C8.46635 23.125 8.68269 22.7788 8.68269 22.476C8.68269 22.2019 8.66827 21.2933 8.66827 20.3269C5.76923 20.8606 5.01923 19.6202 4.78846 18.9711C4.65865 18.6394 4.09615 17.6154 3.60577 17.3413C3.20192 17.125 2.625 16.5913 3.59135 16.5769C4.5 16.5625 5.14904 17.4135 5.36538 17.7596C6.40385 19.5048 8.0625 19.0144 8.72596 18.7115C8.82692 17.9615 9.12981 17.4567 9.46154 17.1683C6.89423 16.8798 4.21154 15.8846 4.21154 11.4711C4.21154 10.2163 4.65865 9.17788 5.39423 8.37018C5.27885 8.08172 4.875 6.89903 5.50962 5.31249C5.50962 5.31249 6.47596 5.00961 8.68269 6.49518C9.60577 6.23557 10.5865 6.10576 11.5673 6.10576C12.5481 6.10576 13.5288 6.23557 14.4519 6.49518C16.6587 4.99518 17.625 5.31249 17.625 5.31249C18.2596 6.89903 17.8558 8.08172 17.7404 8.37018C18.476 9.17788 18.9231 10.2019 18.9231 11.4711C18.9231 15.899 16.226 16.8798 13.6587 17.1683C14.0769 17.5288 14.4375 18.2211 14.4375 19.3029C14.4375 20.8461 14.4231 22.0865 14.4231 22.476C14.4231 22.7788 14.6394 23.1394 15.2163 23.024C17.5069 22.2507 19.4973 20.7785 20.9074 18.8148C22.3175 16.851 23.0762 14.4945 23.0769 12.0769C23.0769 5.70191 17.9135 0.538452 11.5385 0.538452Z" fill="#A7A7A7"/>
</svg>
