<svg width="24" height="24" viewBox="0 0 24 24" fill="none" xmlns="http://www.w3.org/2000/svg">
<g clip-path="url(#clip0_212_163)">
<path d="M12.4616 1C6.34387 1 1.38464 5.95923 1.38464 12.0769C1.38464 18.1946 6.34387 23.1538 12.4616 23.1538C18.5793 23.1538 23.5385 18.1946 23.5385 12.0769C23.5385 5.95923 18.5793 1 12.4616 1ZM9.75003 16.6681H7.50695V9.44962H9.75003V16.6681ZM8.61464 8.56346C7.90618 8.56346 7.44811 8.06154 7.44811 7.44077C7.44811 6.80731 7.92003 6.32038 8.64349 6.32038C9.36695 6.32038 9.81003 6.80731 9.82387 7.44077C9.82387 8.06154 9.36695 8.56346 8.61464 8.56346ZM17.9423 16.6681H15.6993V12.6677C15.6993 11.7365 15.3739 11.1042 14.5627 11.1042C13.9431 11.1042 13.575 11.5323 13.4123 11.9442C13.3523 12.0908 13.3373 12.2985 13.3373 12.505V16.6669H11.0931V11.7515C11.0931 10.8504 11.0643 10.0969 11.0343 9.44846H12.9831L13.0858 10.4512H13.1308C13.4262 9.98038 14.1496 9.28577 15.36 9.28577C16.8358 9.28577 17.9423 10.2746 17.9423 12.4V16.6681Z" fill="#A7A7A7"/>
</g>
<defs>
<clipPath id="clip0_212_163">
<rect width="23.0769" height="23.0769" fill="white" transform="translate(0.923096 0.538452)"/>
</clipPath>
</defs>
</svg>
