<svg width="45" height="34" viewBox="0 0 45 34" fill="none" xmlns="http://www.w3.org/2000/svg">
<path d="M12.6815 12.2927C12.6815 12.9638 12.7413 13.5079 12.8461 13.9069C12.9658 14.3059 13.1155 14.7412 13.325 15.2128C13.3999 15.3579 13.4298 15.503 13.4298 15.63C13.4298 15.8114 13.34 15.9927 13.1454 16.1741L12.2025 16.9359C12.0678 17.0447 11.9331 17.0991 11.8134 17.0991C11.6637 17.0991 11.5141 17.0084 11.3644 16.8452C11.1549 16.5731 10.9753 16.2829 10.8256 15.9927C10.6759 15.6844 10.5263 15.3398 10.3617 14.9226C9.19426 16.5913 7.72754 17.4256 5.96149 17.4256C4.7043 17.4256 3.70154 16.9903 2.96818 16.1197C2.23482 15.2491 1.86066 14.0883 1.86066 12.6373C1.86066 11.0956 2.30965 9.84411 3.22261 8.90095C4.13557 7.9578 5.34786 7.48622 6.88941 7.48622C7.39828 7.48622 7.9221 7.54064 8.47587 7.63132C9.02963 7.72201 9.59836 7.86711 10.197 8.03035V6.70631C10.197 5.32785 9.95755 4.36656 9.49359 3.8043C9.01466 3.24204 8.20647 2.96997 7.05404 2.96997C6.53022 2.96997 5.99142 3.04252 5.43766 3.20576C4.8839 3.369 4.3451 3.56851 3.82127 3.82244C3.58181 3.9494 3.40221 4.02195 3.29744 4.05823C3.19268 4.0945 3.11785 4.11264 3.05798 4.11264C2.84845 4.11264 2.74368 3.93126 2.74368 3.55037V2.66163C2.74368 2.37143 2.77362 2.15378 2.84845 2.02682C2.92328 1.89986 3.05798 1.77289 3.26751 1.64593C3.79134 1.31946 4.41993 1.04739 5.15329 0.829741C5.88665 0.593953 6.66491 0.485128 7.48807 0.485128C9.26909 0.485128 10.5712 0.974841 11.4093 1.95427C12.2325 2.9337 12.6515 4.42098 12.6515 6.41611V12.2927H12.6815ZM6.60505 15.0496C7.09894 15.0496 7.60781 14.9408 8.1466 14.7231C8.6854 14.5055 9.16433 14.1064 9.56842 13.5623C9.80789 13.2177 9.98749 12.8368 10.0773 12.4015C10.1671 11.9662 10.227 11.4402 10.227 10.8235V10.0618C9.79292 9.93479 9.32896 9.82597 8.85003 9.75342C8.3711 9.68087 7.90714 9.64459 7.44318 9.64459C6.44042 9.64459 5.70706 9.88038 5.21316 10.3701C4.71927 10.8598 4.4798 11.549 4.4798 12.4559C4.4798 13.3084 4.6594 13.9432 5.03356 14.3785C5.39276 14.8319 5.91659 15.0496 6.60505 15.0496V15.0496ZM18.6232 17.0084C18.3538 17.0084 18.1742 16.954 18.0545 16.8271C17.9347 16.7182 17.83 16.4643 17.7402 16.1197L14.223 2.09937C14.1332 1.73662 14.0883 1.50083 14.0883 1.37387C14.0883 1.08367 14.208 0.920429 14.4475 0.920429H15.9142C16.1986 0.920429 16.3932 0.974842 16.4979 1.1018C16.6177 1.21063 16.7075 1.46456 16.7973 1.80917L19.3116 13.8162L21.6464 1.80917C21.7213 1.44642 21.811 1.21063 21.9308 1.1018C22.0505 0.992979 22.26 0.920429 22.5294 0.920429H23.7268C24.0111 0.920429 24.2057 0.974842 24.3254 1.1018C24.4452 1.21063 24.5499 1.46456 24.6098 1.80917L26.9745 13.9613L29.5637 1.80917C29.6535 1.44642 29.7583 1.21063 29.863 1.1018C29.9828 0.992979 30.1773 0.920429 30.4467 0.920429H31.8386C32.0781 0.920429 32.2128 1.06553 32.2128 1.37387C32.2128 1.46456 32.1978 1.55524 32.1829 1.66407C32.1679 1.77289 32.138 1.91799 32.0781 2.11751L28.4712 16.1378C28.3814 16.5006 28.2766 16.7364 28.1569 16.8452C28.0371 16.954 27.8426 17.0266 27.5881 17.0266H26.301C26.0166 17.0266 25.8221 16.9722 25.7023 16.8452C25.5826 16.7182 25.4779 16.4825 25.418 16.1197L23.0982 4.42098L20.7933 16.1016C20.7185 16.4643 20.6287 16.7001 20.509 16.8271C20.3892 16.954 20.1797 17.0084 19.9103 17.0084H18.6232ZM37.8552 17.4982C37.0769 17.4982 36.2987 17.3893 35.5503 17.1717C34.802 16.954 34.2183 16.7182 33.8292 16.4462C33.5897 16.2829 33.4251 16.1016 33.3652 15.9383C33.3054 15.7751 33.2754 15.5937 33.2754 15.4305V14.5055C33.2754 14.1246 33.3951 13.9432 33.6196 13.9432C33.7094 13.9432 33.7992 13.9613 33.889 13.9976C33.9788 14.0339 34.1135 14.1064 34.2632 14.179C34.7721 14.451 35.3258 14.6687 35.9095 14.8138C36.5082 14.9589 37.0919 15.0314 37.6905 15.0314C38.6334 15.0314 39.3668 14.8319 39.8757 14.4329C40.3845 14.0339 40.6539 13.4535 40.6539 12.7098C40.6539 12.202 40.5192 11.7848 40.2498 11.4402C39.9804 11.0956 39.4716 10.7873 38.7382 10.4971L36.5681 9.68087C35.4755 9.2637 34.6673 8.64703 34.1734 7.83084C33.6795 7.03279 33.4251 6.14404 33.4251 5.20089C33.4251 4.43911 33.5598 3.76803 33.8292 3.18762C34.0986 2.60722 34.4578 2.09937 34.9068 1.70034C35.3558 1.28318 35.8646 0.974842 36.4633 0.757191C37.062 0.53954 37.6905 0.448853 38.3491 0.448853C38.6783 0.448853 39.0226 0.46699 39.3518 0.521403C39.6961 0.575815 40.0104 0.648366 40.3247 0.720916C40.624 0.811604 40.9083 0.902291 41.1777 1.01112C41.4471 1.11994 41.6567 1.22877 41.8063 1.33759C42.0159 1.48269 42.1655 1.62779 42.2553 1.79103C42.3451 1.93613 42.39 2.13565 42.39 2.38957V3.24204C42.39 3.62292 42.2703 3.82244 42.0458 3.82244C41.9261 3.82244 41.7315 3.74989 41.4771 3.60479C40.624 3.13321 39.6661 2.89742 38.6035 2.89742C37.7504 2.89742 37.0769 3.06066 36.613 3.40527C36.149 3.74989 35.9095 4.27588 35.9095 5.01952C35.9095 5.52737 36.0592 5.96267 36.3585 6.30728C36.6579 6.6519 37.2116 6.99651 38.0048 7.30485L40.1301 8.12104C41.2077 8.5382 41.9859 9.1186 42.4499 9.86224C42.9139 10.6059 43.1384 11.4583 43.1384 12.4015C43.1384 13.1814 43.0037 13.8888 42.7492 14.5055C42.4798 15.1221 42.1206 15.6663 41.6567 16.1016C41.1927 16.555 40.639 16.8815 39.9954 17.1173C39.3219 17.3712 38.6185 17.4982 37.8552 17.4982V17.4982Z" fill="white"/>
<path fill-rule="evenodd" clip-rule="evenodd" d="M40.6838 26.3129C35.7598 30.7204 28.6058 33.0601 22.4546 33.0601C13.8339 33.0601 6.06623 29.1968 0.199357 22.7761C-0.264606 22.2683 0.154457 21.579 0.708218 21.9781C7.05402 26.4399 14.8815 29.1424 22.9784 29.1424C28.4412 29.1424 34.4428 27.7639 39.9654 24.9345C40.7886 24.481 41.492 25.5874 40.6838 26.3129V26.3129Z" fill="#FF9900"/>
<path fill-rule="evenodd" clip-rule="evenodd" d="M42.7343 23.4834C42.1057 22.504 38.5736 23.0119 36.9722 23.2477C36.4933 23.3202 36.4184 22.8124 36.8525 22.4315C39.6662 20.0373 44.2908 20.7265 44.8296 21.5246C45.3684 22.3408 44.6799 27.9453 42.0458 30.6296C41.6417 31.0468 41.2526 30.8291 41.4322 30.285C42.0308 28.4894 43.3629 24.4447 42.7343 23.4834V23.4834Z" fill="#FF9900"/>
</svg>
