<svg width="45" height="46" viewBox="0 0 45 46" fill="none" xmlns="http://www.w3.org/2000/svg">
<path d="M44.9977 13.8987C44.9974 13.1354 44.8155 12.4608 44.4477 11.8819C44.0864 11.3126 43.5453 10.8354 42.8196 10.4582C36.8288 7.35742 30.8323 4.26614 24.8435 1.16222C23.2289 0.325513 21.6635 0.356017 20.0609 1.20474C17.6764 2.46707 5.73808 8.60679 2.18061 10.4564C0.715543 11.2178 0.00264103 12.3829 0.00228889 13.8973C0 20.1331 0.00228889 26.3688 0 32.6048C0.000352137 33.3514 0.174484 34.0128 0.526093 34.5831C0.887562 35.1696 1.43619 35.6598 2.17867 36.0456C5.73632 37.8953 17.6762 44.0345 20.0602 45.2972C21.6635 46.1464 23.2289 46.1767 24.844 45.3397C30.833 42.2356 36.8299 39.1445 42.8215 36.0437C43.564 35.6581 44.1126 35.1675 44.4741 34.5815C44.8252 34.0112 44.9996 33.3498 45 32.603C45 32.603 45 20.1347 44.9977 13.8987" fill="#5C8DBC"/>
<path d="M22.5688 23.1903L0.526062 34.5831C0.887532 35.1696 1.43616 35.6599 2.17864 36.0457C5.73629 37.8953 17.6762 44.0346 20.0602 45.2972C21.6635 46.1464 23.2289 46.1768 24.844 45.3398C30.833 42.2357 36.8299 39.1446 42.8215 36.0438C43.564 35.6582 44.1126 35.1676 44.4741 34.5815L22.5688 23.1903" fill="#1A4674"/>
<path d="M16.04 26.5649C17.3226 28.575 19.7339 29.9307 22.4999 29.9307C25.2831 29.9307 27.7081 28.5578 28.9842 26.5262L22.5688 23.1903L16.04 26.5649" fill="#1A4674"/>
<path d="M44.9977 13.8988C44.9974 13.1354 44.8155 12.4609 44.4477 11.882L22.5688 23.1904L44.4741 34.5816C44.8252 34.0114 44.9997 33.3499 45 32.6031C45 32.6031 45 20.1348 44.9977 13.8988" fill="#1B598E"/>
<path d="M43.7932 24.0046H42.0814V25.5414H40.3693V24.0046H38.6578V22.4682H40.3693V20.9316H42.0814V22.4682H43.7932V24.0046ZM37.5471 24.0046H35.8356V25.5414H34.1238V24.0046H32.4121V22.4682H34.1238V20.9316H35.8356V22.4682H37.5471V24.0046Z" fill="white"/>
<path d="M28.9843 26.5263C27.7081 28.5578 25.2831 29.9308 22.5 29.9308C19.734 29.9308 17.3227 28.5751 16.0401 26.565C15.3957 25.5564 15.0573 24.4137 15.0587 23.251C15.0587 19.562 18.3904 16.5714 22.5 16.5714C25.2483 16.5714 27.6469 17.9102 28.9359 19.8998L35.44 16.5377C32.8548 12.5318 28.0282 9.83679 22.5 9.83679C14.2466 9.83679 7.55618 15.8427 7.55618 23.251C7.55618 25.6815 8.27648 27.9607 9.53537 29.9267C12.1141 33.9538 16.9544 36.6654 22.5 36.6654C28.0559 36.6654 32.9038 33.9429 35.4788 29.9039L28.9843 26.5263Z" fill="white"/>
</svg>
