<svg width="45" height="46" viewBox="0 0 45 46" fill="none" xmlns="http://www.w3.org/2000/svg">
<path d="M44.9976 13.6809C44.9973 12.9176 44.8154 12.243 44.4476 11.6642C44.0863 11.0948 43.5452 10.6176 42.8195 10.2404C36.8288 7.13959 30.8322 4.0483 24.8434 0.944375C23.2289 0.107663 21.6635 0.138324 20.0609 0.987049C17.6764 2.24923 5.73807 8.38897 2.18061 10.2386C0.715542 11.0001 0.00264103 12.1652 0.00228889 13.6795C0 19.9153 0.00228889 26.1512 0 32.387C0 33.1336 0.174484 33.7952 0.526092 34.3653C0.887561 34.9518 1.43619 35.4421 2.17867 35.8279C5.73631 37.6775 17.6762 43.8168 20.0602 45.0795C21.6635 45.9287 23.2289 45.959 24.844 45.1221C30.8329 42.0181 36.8298 38.9268 42.8214 35.826C43.5639 35.4404 44.1125 34.9498 44.474 34.3637C44.8251 33.7935 44.9999 33.132 44.9999 32.3853C44.9999 32.3853 44.9999 19.9169 44.9976 13.6809Z" fill="#A179DC"/>
<path d="M22.5688 22.9724L0.526123 34.3652C0.887591 34.9517 1.43622 35.442 2.1787 35.8278C5.73634 37.6775 17.6762 43.8167 20.0602 45.0794C21.6635 45.9286 23.2289 45.9589 24.844 45.1221C30.8329 42.018 36.8298 38.9267 42.8214 35.8259C43.5639 35.4403 44.1125 34.9497 44.474 34.3636L22.5688 22.9724Z" fill="#280068"/>
<path d="M44.9977 13.681C44.9973 12.9176 44.8155 12.2431 44.4477 11.6643L22.5688 22.9727L44.4741 34.3639C44.8251 33.7936 44.9996 33.1322 45 32.3854C45 32.3854 45 19.917 44.9977 13.681Z" fill="#390091"/>
<path d="M35.5468 18.7136V20.8432H37.9191V18.7136H39.1053V20.8432H41.4776V21.908H39.1053V24.0373H41.4776V25.1021H39.1053V27.2317H37.9191V25.1021H35.5468V27.2317H34.3606V25.1021H31.9884V24.0373H34.3606V21.908H31.9884V20.8432H34.3606V18.7136H35.5468ZM37.9191 21.9078H35.5468V24.0373H37.9191V21.9078Z" fill="white"/>
<path d="M22.6172 8.01871C28.805 8.01871 34.2073 11.0352 37.101 15.5191L37.0728 15.476L29.7924 19.2388C28.3581 17.0588 25.7287 15.5875 22.7121 15.5572L22.6171 15.5567C18.0173 15.5567 14.2881 18.9042 14.2881 23.0332C14.2866 24.3347 14.6654 25.6137 15.3866 26.7427C16.8223 28.9925 19.5212 30.5099 22.6172 30.5099C25.7324 30.5099 28.4467 28.9732 29.8749 26.6994L29.8403 26.7539L37.1096 30.5341C34.2476 34.98 28.9193 37.9872 22.8035 38.0471L22.6172 38.0481C16.4099 38.0481 10.9923 35.0129 8.10586 30.5053C6.69678 28.3048 5.89056 25.7537 5.89056 23.0332C5.89056 14.741 13.3791 8.01855 22.6171 8.01855L22.6172 8.01871Z" fill="white"/>
</svg>
