<svg width="45" height="46" viewBox="0 0 45 46" fill="none" xmlns="http://www.w3.org/2000/svg">
<path d="M3.07971 0.354736L6.61467 40.3929L22.4765 44.8549L38.3826 40.3766L41.9203 0.354736H3.07971ZM34.5765 9.52766L33.3999 22.8657L33.4034 22.9377L33.3985 23.1033V23.1019L32.5624 32.4281L32.4703 33.2566L22.5 36.0388V36.0391L22.4923 36.0459L12.5392 33.2481L11.8653 25.5375H16.746L17.0923 29.4583L22.5014 30.9373L22.5 30.9402V30.9394L27.9292 29.4395L28.503 23.0547H17.1535L17.0561 21.9754L16.8342 19.4469L16.7179 18.0891H28.9343L29.3787 13.1235H10.7719L10.6745 12.0449L10.453 9.51561L10.3363 8.15786H34.6929L34.5765 9.52766V9.52766Z" fill="#1572B6"/>
</svg>
