<svg width="45" height="46" viewBox="0 0 45 46" fill="none" xmlns="http://www.w3.org/2000/svg">
<path d="M44.5562 17.5472C44.4341 17.4103 43.2948 16.1955 40.8921 16.1955C40.2577 16.1994 39.6246 16.2762 38.9989 16.4253C38.5339 11.9241 35.8987 9.72959 35.7805 9.63114L35.1353 9.10571L34.711 9.97042C34.1796 11.132 33.7916 12.4125 33.5639 13.7574C33.1337 16.3268 33.3953 18.7401 34.3196 20.8033C33.2035 21.6816 31.4131 21.8978 31.0508 21.9169H1.40862C0.634373 21.9185 0.00610987 22.802 0.00189038 23.8953C-0.0326843 27.5624 0.407276 31.2076 1.30011 34.6515C2.32123 38.4331 3.84037 41.2186 5.81679 42.9233C8.03152 44.8387 11.6297 45.9332 15.7085 45.9332C17.5511 45.9414 19.3902 45.7059 21.2018 45.23C23.72 44.577 26.1432 43.3341 28.371 41.5524C30.2068 40.0512 31.8589 38.1414 33.2636 35.8965C35.6121 32.1423 37.0111 27.9613 38.0516 24.2455H38.4662C41.0375 24.2455 42.6186 22.7925 43.4906 21.5749C44.07 20.7983 44.5224 19.8523 44.8159 18.8031L45 18.0424L44.5562 17.5472Z" fill="#2496ED"/>
<path d="M4.1562 20.6912H8.12838C8.31996 20.6912 8.4752 20.4719 8.4752 20.2014V15.2049C8.47627 14.9344 8.32185 14.7139 8.13034 14.7124C8.12971 14.7124 8.12901 14.7124 8.12838 14.7124H4.1562C3.96463 14.7124 3.80939 14.9317 3.80939 15.2022V15.2049V20.2013C3.80939 20.4719 3.96463 20.6912 4.1562 20.6912V20.6912Z" fill="#2496ED"/>
<path d="M9.63008 20.6912H13.6023C13.7938 20.6912 13.9491 20.4719 13.9491 20.2014V15.2049C13.9501 14.9344 13.7957 14.7139 13.6042 14.7124C13.6035 14.7124 13.6028 14.7124 13.6022 14.7124H9.63002C9.43737 14.7124 9.28125 14.9329 9.28125 15.2049V20.2013C9.28238 20.4723 9.43819 20.6912 9.63008 20.6912" fill="#2496ED"/>
<path d="M15.1872 20.6912H19.1594C19.351 20.6912 19.5062 20.4719 19.5062 20.2014V15.2049C19.5073 14.9344 19.3529 14.7139 19.1613 14.7124C19.1607 14.7124 19.16 14.7124 19.1593 14.7124H15.1871C14.9956 14.7124 14.8403 14.9317 14.8403 15.2022V15.2049V20.2013C14.8404 20.4719 14.9957 20.6912 15.1872 20.6912V20.6912Z" fill="#2496ED"/>
<path d="M20.6785 20.6912H24.6507C24.8426 20.6912 24.9984 20.4724 24.9995 20.2014V15.2049C24.9995 14.9329 24.8434 14.7124 24.6507 14.7124H20.6785C20.487 14.7124 20.3317 14.9317 20.3317 15.2022V15.2049V20.2013C20.3317 20.4719 20.487 20.6912 20.6785 20.6912V20.6912Z" fill="#2496ED"/>
<path d="M9.63008 13.503H13.6023C13.7941 13.5015 13.9491 13.2814 13.9491 13.0105V8.01405C13.9491 7.74351 13.7938 7.52429 13.6023 7.52429H9.63008C9.43825 7.52429 9.28238 7.74307 9.28131 8.01405V13.0105C9.28238 13.2819 9.43787 13.5015 9.63008 13.503Z" fill="#2496ED"/>
<path d="M15.1872 13.503H19.1594C19.3512 13.5015 19.5062 13.2814 19.5062 13.0105V8.01405C19.5062 7.74351 19.3509 7.52429 19.1594 7.52429H15.1872C14.9956 7.52429 14.8404 7.7436 14.8404 8.01405V13.0105C14.8404 13.2814 14.9954 13.5015 15.1872 13.503Z" fill="#2496ED"/>
<path d="M20.6785 13.503H24.6507C24.8429 13.5015 24.9984 13.2819 24.9995 13.0105V8.01405C24.9984 7.74307 24.8426 7.52429 24.6507 7.52429H20.6785C20.487 7.52429 20.3317 7.7436 20.3317 8.01405V13.0105C20.3317 13.2814 20.4867 13.5015 20.6785 13.503Z" fill="#2496ED"/>
<path d="M20.6785 6.31215H24.6507C24.8426 6.31215 24.9984 6.09329 24.9995 5.82239V0.823135C24.9984 0.552152 24.8426 0.333374 24.6507 0.333374H20.6785C20.487 0.333374 20.3317 0.552597 20.3317 0.823135V5.8223C20.3317 6.09284 20.487 6.31215 20.6785 6.31215Z" fill="#2496ED"/>
<path d="M26.2183 20.6912H30.1905C30.3823 20.6912 30.5382 20.4724 30.5392 20.2014V15.2049C30.5392 14.9329 30.3831 14.7124 30.1905 14.7124H26.2183C26.0268 14.7124 25.8715 14.9317 25.8715 15.2022V15.2049V20.2013C25.8715 20.4719 26.0268 20.6912 26.2183 20.6912" fill="#2496ED"/>
</svg>
