<svg width="45" height="46" viewBox="0 0 45 46" fill="none" xmlns="http://www.w3.org/2000/svg">
<g clip-path="url(#clip0_208_308)">
<path d="M6.15234 37.0053L6.42477 36.6205L19.3116 11.9509L19.3388 11.6897L13.658 0.924318C13.1821 0.0225215 11.8422 0.250527 11.686 1.26002L6.15234 37.0053Z" fill="#FFC24A"/>
<path d="M6.31302 36.7118L6.5191 36.3064L19.2709 11.8953L13.6043 1.08613C13.1334 0.193786 11.9375 0.421264 11.7829 1.42018L6.31302 36.7118Z" fill="#FFA712"/>
<path d="M23.4802 19.8327L27.71 15.4623L23.479 7.31347C23.0773 6.54213 21.9559 6.5399 21.5585 7.31347L19.2981 11.6629V12.0333L23.4802 19.8327Z" fill="#F4BD62"/>
<path d="M23.4048 19.6507L27.5169 15.4018L23.4048 7.50197C23.0143 6.75209 22.0657 6.67352 21.6793 7.42557L19.4069 11.8424L19.339 12.0682L23.4048 19.6507Z" fill="#FFA50E"/>
<path d="M6.15234 37.0053L6.27583 36.88L6.72449 36.6961L23.2145 20.1214L23.4234 19.5476L19.3098 11.6392L6.15234 37.0053Z" fill="#F6820C"/>
<path d="M24.0084 45.3643L38.9321 36.9672L34.6704 10.4873C34.5371 9.65878 33.5296 9.33125 32.9419 9.9253L6.15234 37.0053L20.9905 45.3636C21.9283 45.8918 23.0704 45.8921 24.0084 45.3643Z" fill="#FDE068"/>
<path d="M38.7984 36.8968L34.569 10.6179C34.4367 9.79567 33.5989 9.45544 33.0156 10.045L6.31778 36.9539L20.993 45.2294C21.9236 45.7537 23.057 45.7539 23.9879 45.2302L38.7984 36.8968Z" fill="#FCCA3F"/>
<path d="M24.0084 45.1169C23.0704 45.6447 21.9283 45.6444 20.9905 45.1162L6.27186 36.878L6.15234 37.0053L20.9905 45.3636C21.9283 45.8918 23.0704 45.8921 24.0084 45.3643L38.9321 36.9672L38.8956 36.7404L24.0084 45.1169Z" fill="#EEAB37"/>
</g>
<defs>
<clipPath id="clip0_208_308">
<rect width="45" height="45.4" fill="white" transform="translate(0 0.359985)"/>
</clipPath>
</defs>
</svg>
