<svg width="45" height="46" viewBox="0 0 45 46" fill="none" xmlns="http://www.w3.org/2000/svg">
<g clip-path="url(#clip0_209_44)">
<path d="M44.1513 21.2286L24.5039 1.40756C23.3731 0.266001 21.538 0.266001 20.4057 1.40756L16.3259 5.52371L21.5014 10.7452C22.7041 10.3352 24.0833 10.6103 25.042 11.5775C26.0053 12.551 26.276 13.9543 25.8597 15.1716L30.8475 20.2039C32.0542 19.7845 33.4466 20.0558 34.4104 21.0298C35.7574 22.3882 35.7574 24.5899 34.4104 25.9493C33.063 27.3088 30.8807 27.3088 29.5327 25.9493C28.5195 24.926 28.2691 23.4248 28.7821 22.1655L24.1305 17.4726L24.13 29.8223C24.4672 29.9905 24.7752 30.2127 25.042 30.4802C26.389 31.8387 26.389 34.0406 25.042 35.401C23.6946 36.7598 21.5112 36.7598 20.1658 35.401C18.8188 34.0406 18.8188 31.8389 20.1658 30.4804C20.4886 30.1546 20.8722 29.8965 21.2945 29.7212V17.2564C20.8716 17.0823 20.4878 16.8241 20.1658 16.4972C19.1452 15.469 18.8998 13.9582 19.4228 12.6939L14.3209 7.54614L0.849024 21.1369C-0.283008 22.2795 -0.283008 24.1312 0.849024 25.2729L20.4968 45.0943C21.628 46.236 23.4628 46.236 24.5953 45.0943L44.1512 25.3649C45.2828 24.2228 45.2828 22.3701 44.1512 21.2286" fill="#DE4C36"/>
</g>
<defs>
<clipPath id="clip0_209_44">
<rect width="45" height="45.4" fill="white" transform="translate(0 0.551147)"/>
</clipPath>
</defs>
</svg>
