<svg width="45" height="46" viewBox="0 0 45 46" fill="none" xmlns="http://www.w3.org/2000/svg">
<path d="M14.4927 35.4439C14.4927 35.4439 12.1612 36.4527 16.1521 36.7941C20.9872 37.2045 23.4581 37.1457 28.7864 36.3953C28.7864 36.3953 30.1873 37.0488 32.1435 37.615C20.1993 41.424 5.11098 37.3943 14.4927 35.4439V35.4439ZM13.0332 30.4733C13.0332 30.4733 10.4181 31.9137 14.412 32.221C19.5769 32.6175 23.6556 32.6499 30.7136 31.6387C30.7136 31.6387 31.6898 32.3751 33.2248 32.7778C18.7833 35.92 2.69814 33.0256 13.0332 30.4733" fill="#5382A1"/>
<path d="M25.3376 22.0415C28.2808 24.5627 24.5644 26.8316 24.5644 26.8316C24.5644 26.8316 32.0373 23.9611 28.6053 20.3665C25.4 17.0145 22.9418 15.3488 36.2491 9.60632C36.2491 9.60632 15.3611 13.488 25.3376 22.0414" fill="#E76F00"/>
<path d="M41.135 39.1203C41.135 39.1203 42.8605 40.1781 39.2347 40.9965C32.3403 42.5506 10.5393 43.0199 4.48298 41.0584C2.30599 40.3539 6.38863 39.3759 7.67277 39.1706C9.01204 38.9544 9.77751 38.9948 9.77751 38.9948C7.35637 37.7257 -5.87164 41.4867 3.05839 42.5637C27.4116 45.5023 47.4519 41.2405 41.135 39.1203ZM15.6139 25.3231C15.6139 25.3231 4.52468 27.283 11.687 27.9946C14.7111 28.2959 20.7397 28.2278 26.3552 27.8776C30.9445 27.5897 35.5527 26.9772 35.5527 26.9772C35.5527 26.9772 33.9345 27.4928 32.7638 28.0876C21.5027 30.2914 -0.251706 29.2662 6.0111 27.012C11.3076 25.107 15.614 25.3231 15.614 25.3231H15.6139ZM35.5069 33.5968C46.9546 29.1707 41.6616 24.9172 37.9673 25.4903C37.0617 25.6305 36.6581 25.7519 36.6581 25.7519C36.6581 25.7519 36.9943 25.3602 37.6362 25.1906C44.9447 23.2787 50.5655 30.8294 35.2769 33.8199C35.2769 33.82 35.4541 33.7022 35.5069 33.5968" fill="#5382A1"/>
<path d="M28.6053 0.333505C28.6053 0.333505 34.9451 5.05253 22.5923 12.3086C12.6867 18.1295 20.3335 21.4483 22.5882 25.2402C16.8061 21.3585 12.5627 17.9414 15.4096 14.7611C19.5878 10.0924 31.1632 7.82899 28.6053 0.333374" fill="#E76F00"/>
<path d="M16.7388 45.5907C27.7269 46.1141 44.6004 45.3003 45 41.4316C45 41.4316 44.2319 42.8983 35.9189 44.063C26.5403 45.3761 14.9732 45.2229 8.11261 44.3812C8.11279 44.3812 9.51707 45.2461 16.739 45.5907" fill="#5382A1"/>
</svg>
