<svg width="45" height="46" viewBox="0 0 45 46" fill="none" xmlns="http://www.w3.org/2000/svg">
<path d="M0.494995 1.05945H44.505V45.461H0.494995V1.05945Z" fill="#F0DB4F"/>
<path d="M40.9033 34.8711C40.5809 32.8455 39.2717 31.144 35.3936 29.5575C34.0464 28.9329 32.5445 28.4856 32.097 27.4556C31.9381 26.8562 31.917 26.5186 32.0175 26.1557C32.3062 24.9781 33.6994 24.611 34.8037 24.9487C35.5149 25.1892 36.1881 25.7421 36.5942 26.6242C38.4933 25.3836 38.4894 25.3917 39.8155 24.539C39.33 23.7797 39.0709 23.4292 38.7531 23.1043C37.6109 21.8172 36.0545 21.1543 33.5655 21.205L32.2689 21.3742C31.0265 21.6909 29.8424 22.3488 29.1481 23.231C27.0647 25.6159 27.6589 29.7898 30.194 31.5076C32.6915 33.3988 36.3604 33.829 36.829 35.5975C37.285 37.7625 35.2519 38.4634 33.2311 38.2144C31.7419 37.9019 30.9136 37.1382 30.0182 35.7496C28.3701 36.7119 28.3701 36.7119 26.6755 37.6951C27.0774 38.5815 27.4996 38.9826 28.1732 39.7505C31.3612 43.0129 39.3388 42.8526 40.7697 37.9147C40.8277 37.7451 41.213 36.6144 40.9033 34.8711ZM24.4203 21.4664H20.3038L20.2869 32.2035C20.2869 34.487 20.404 36.5803 20.0359 37.222C19.4337 38.4839 17.8731 38.3275 17.1619 38.0828C16.438 37.7238 16.0699 37.2134 15.6435 36.492C15.5264 36.2849 15.4385 36.1246 15.409 36.1121L12.0621 38.18C12.6187 39.3323 13.4385 40.3326 14.4886 40.9824C16.0573 41.9322 18.1656 42.2234 20.3706 41.7127C21.8057 41.2909 23.0439 40.4173 23.6922 39.0876C24.6294 37.3443 24.4283 35.2343 24.4199 32.9004C24.441 29.0929 24.4203 25.286 24.4203 21.4664Z" fill="#323330"/>
</svg>
