<svg width="46" height="46" viewBox="0 0 46 46" fill="none" xmlns="http://www.w3.org/2000/svg">
<path d="M44.8809 27.5645C44.6104 26.7629 43.9019 26.2045 42.9857 26.0706C42.5536 26.0075 42.0588 26.0344 41.4733 26.1525C40.4527 26.3585 39.6956 26.437 39.143 26.4522C41.2287 23.0062 42.9247 19.0765 43.901 15.3775C45.4798 9.3961 44.6362 6.67123 43.6503 5.43871C41.0413 2.17638 37.2347 0.42382 32.6425 0.370195C30.1928 0.340882 28.0422 0.814197 26.9203 1.15457C25.8758 0.97421 24.7527 0.873512 23.5742 0.85489C21.3652 0.820404 19.4133 1.29165 17.7456 2.26018C16.8223 1.95463 15.3404 1.52391 13.6291 1.24906C9.60428 0.602455 6.36037 1.10629 3.98762 2.7466C1.11444 4.73262 -0.217479 8.18325 0.0288531 13.0026C0.107087 14.5327 0.981762 19.1883 2.35897 23.6035C3.15047 26.1413 3.99449 28.2487 4.86758 29.8678C6.10576 32.1637 7.43063 33.5157 8.91796 34.0012C9.75158 34.273 11.2662 34.4633 12.8593 33.1649C13.0612 33.4043 13.3306 33.642 13.6881 33.8629C14.1422 34.1431 14.6974 34.3721 15.252 34.5078C17.2503 34.9966 19.1221 34.8744 20.719 34.1892C20.7289 34.4671 20.7365 34.7327 20.7428 34.962C20.7534 35.3339 20.7639 35.6986 20.7779 36.0397C20.8725 38.3457 21.0328 40.1388 21.5079 41.3934C21.534 41.4623 21.569 41.5675 21.606 41.6791C21.843 42.3891 22.2393 43.5779 23.2475 44.5088C24.2915 45.4732 25.5544 45.7689 26.711 45.7689C27.291 45.7689 27.8445 45.6944 28.3299 45.5927C30.0603 45.2297 32.0255 44.6769 33.4471 42.6961C34.7911 40.8235 35.4445 38.0031 35.5627 33.5591C35.5781 33.4334 35.5922 33.3134 35.6057 33.1991L35.6339 32.9642L35.9506 32.9915L36.0322 32.9968C37.7945 33.0755 39.9495 32.7097 41.273 32.1081C42.3187 31.6333 45.6699 29.9019 44.8809 27.5645Z" fill="black"/>
<path d="M41.8675 28.019C36.6272 29.0768 36.2669 27.3407 36.2669 27.3407C41.7997 19.3067 44.1127 9.10881 42.1169 6.61291C36.6715 -0.19541 27.2454 3.02451 27.0881 3.10797L27.0375 3.11693C26.0022 2.90657 24.8436 2.78139 23.5413 2.76052C21.1703 2.72259 19.3716 3.36885 18.0067 4.38169C18.0067 4.38169 1.19162 -2.39714 1.97379 12.9072C2.14013 16.163 6.74257 37.5425 12.232 31.0849C14.2384 28.7235 16.1772 26.727 16.1772 26.727C17.14 27.3529 18.2927 27.6722 19.5011 27.5576L19.595 27.4796C19.5658 27.7728 19.5792 28.0595 19.6326 28.399C18.2184 29.9452 18.634 30.2166 15.807 30.7861C12.9463 31.3631 14.6268 32.39 15.724 32.6587C17.0542 32.9841 20.1314 33.4451 22.2106 30.5968L22.1278 30.9218C22.6818 31.3562 23.0708 33.7467 23.0056 35.914C22.9404 38.081 22.8969 39.5689 23.3334 40.7311C23.7702 41.8932 24.2052 44.5081 27.9217 43.7289C31.0269 43.0777 32.6362 41.3901 32.8602 38.575C33.0189 36.5738 33.3786 36.8697 33.4011 35.0804L33.6896 34.2335C34.0221 31.5207 33.7424 30.6454 35.6555 31.0525L36.1206 31.0925C37.5285 31.1551 39.3716 30.8708 40.4533 30.3788C42.7824 29.3212 44.1638 27.555 41.8672 28.019H41.8675Z" fill="#336791"/>
<path d="M18.991 14.3633C18.5188 14.299 18.0911 14.3585 17.8747 14.5188C17.7532 14.609 17.7155 14.7135 17.7052 14.7854C17.6781 14.9759 17.8145 15.1866 17.8984 15.2953C18.1355 15.6029 18.4819 15.8143 18.8248 15.8608C18.8745 15.8677 18.924 15.8708 18.9732 15.8708C19.545 15.8708 20.065 15.4351 20.1108 15.1135C20.168 14.7107 19.5705 14.4423 18.991 14.3635V14.3633ZM34.6351 14.376C34.5899 14.0603 34.0159 13.9703 33.4711 14.0445C32.9269 14.1186 32.3994 14.359 32.4434 14.6754C32.4787 14.9214 32.9327 15.3415 33.4702 15.3415C33.5156 15.3415 33.5614 15.3385 33.6076 15.3322C33.9664 15.2835 34.2296 15.0606 34.3547 14.9321C34.545 14.7362 34.6553 14.518 34.6351 14.376Z" fill="white"/>
<path d="M43.6113 27.8988C43.4115 27.3076 42.7683 27.1174 41.6998 27.3333C38.5273 27.974 37.3911 27.5302 37.0181 27.2614C39.4841 23.5852 41.5127 19.1414 42.6071 14.9953C43.1255 13.0314 43.4118 11.2074 43.4353 9.72075C43.4612 8.08906 43.1771 6.88999 42.5914 6.15752C40.23 3.20469 36.764 1.62076 32.5686 1.57731C29.6843 1.54558 27.2474 2.26788 26.775 2.471C25.7802 2.22891 24.6957 2.08028 23.5149 2.06131C21.3497 2.027 19.4781 2.53428 17.9285 3.56834C17.2554 3.32314 15.516 2.73878 13.3886 2.40341C9.71092 1.82405 6.78841 2.26305 4.70286 3.70887C2.21433 5.43418 1.06548 8.51823 1.28803 12.8751C1.36291 14.341 2.21645 18.8503 3.56335 23.1688C5.33631 28.8527 7.26363 32.0704 9.29138 32.7323C9.52873 32.8098 9.80237 32.8639 10.1042 32.8639C10.8439 32.8639 11.7508 32.5377 12.6944 31.4276C13.8453 30.0765 15.0358 28.7583 16.2645 27.4745C17.0616 27.8931 17.9374 28.1269 18.833 28.1504C18.8348 28.1733 18.837 28.1963 18.8392 28.219C18.685 28.3989 18.534 28.5814 18.3863 28.7665C17.7657 29.5374 17.6366 29.6979 15.6389 30.1004C15.0707 30.2152 13.5615 30.5196 13.5393 31.5548C13.5153 32.6859 15.3234 33.161 15.5294 33.2113C16.2472 33.3872 16.9388 33.4739 17.5983 33.4739C19.2023 33.4739 20.6139 32.958 21.7419 31.9599C21.7072 35.9923 21.879 39.9657 22.3738 41.1763C22.7791 42.1674 23.769 44.5895 26.8959 44.5894C27.3547 44.5894 27.8597 44.5371 28.4153 44.4206C31.6788 43.736 33.096 42.3245 33.6442 39.2127C33.9375 37.5496 34.441 33.5784 34.6778 31.4483C35.1775 31.6009 35.8208 31.6707 36.5163 31.6705C37.9668 31.6705 39.6406 31.3689 40.6902 30.8922C41.8694 30.3563 43.9972 29.0413 43.6113 27.8988ZM35.8397 13.5045C35.8289 14.1334 35.7405 14.7043 35.6467 15.3002C35.5458 15.9411 35.4414 16.6037 35.4152 17.4081C35.3893 18.1909 35.4892 19.0048 35.5858 19.7919C35.781 21.3817 35.9813 23.0184 35.2059 24.6334C35.077 24.41 34.9623 24.1792 34.8623 23.9421C34.7659 23.7135 34.5565 23.3462 34.2667 22.8379C33.1392 20.8591 30.4987 16.2253 31.8504 14.3344C32.253 13.7716 33.2748 13.1929 35.8397 13.5045ZM32.7307 2.85069C36.4899 2.9319 39.4635 4.30805 41.5688 6.94069C43.1835 8.96 41.4054 18.1482 36.258 26.0749C36.2062 26.0105 36.1542 25.9463 36.1019 25.8823L36.0367 25.8026C37.3668 23.653 37.1067 21.526 36.8752 19.6404C36.7801 18.8665 36.6902 18.1356 36.7131 17.449C36.7367 16.7213 36.835 16.0971 36.9302 15.4936C37.047 14.75 37.1659 13.9804 37.1332 13.0733C37.1577 12.9781 37.1675 12.8657 37.1547 12.7322C37.071 11.8623 36.056 9.25881 33.9874 6.90241C32.8558 5.61351 31.2057 4.17115 28.9526 3.19831C29.9217 3.00174 31.2469 2.81845 32.7307 2.85069ZM11.6959 30.6151C10.6563 31.8383 9.9384 31.6038 9.70229 31.5269C8.16403 31.0248 6.37909 27.8431 4.80541 22.7979C3.44371 18.4323 2.64797 14.0425 2.58489 12.8115C2.38613 8.91844 3.35049 6.20528 5.45137 4.74723C8.87043 2.37462 14.4917 3.79473 16.7504 4.51497C16.718 4.54635 16.6842 4.57566 16.6521 4.60756C12.9455 8.27063 13.0334 14.5291 13.0426 14.9117C13.0422 15.0593 13.0549 15.2683 13.0722 15.5557C13.136 16.6084 13.2547 18.5675 12.9376 20.7862C12.643 22.8479 13.2924 24.8658 14.7192 26.3227C14.8656 26.4719 15.0195 26.6139 15.1803 26.7482C14.5453 27.4138 13.165 28.8856 11.6959 30.6151ZM15.6567 25.4434C14.5068 24.2692 13.9846 22.636 14.2237 20.962C14.5585 18.6184 14.4349 16.5772 14.3685 15.4805C14.3592 15.3271 14.3509 15.1926 14.3461 15.0865C14.8876 14.6167 17.3969 13.301 19.1865 13.7023C20.003 13.8852 20.5006 14.4294 20.7075 15.3654C21.7781 20.2111 20.8491 22.2308 20.1027 23.8538C19.9489 24.1882 19.8035 24.5042 19.6795 24.8312L19.5833 25.0839C19.3398 25.723 19.1132 26.3171 18.9727 26.8813C17.7502 26.8779 16.561 26.3668 15.6567 25.4433V25.4434ZM15.8444 31.9785C15.4874 31.8912 15.1664 31.7397 14.978 31.614C15.1354 31.5415 15.4153 31.4429 15.901 31.345C18.251 30.8717 18.614 30.5375 19.4065 29.5528C19.5882 29.3269 19.7942 29.071 20.0795 28.7592L20.0798 28.7589C20.5046 28.2933 20.699 28.3723 21.0514 28.5154C21.337 28.631 21.6153 28.9813 21.728 29.3669C21.7814 29.549 21.8413 29.8945 21.6452 30.1635C19.9896 32.432 17.577 32.4028 15.8444 31.9785ZM28.1433 43.178C25.2683 43.7808 24.2504 42.3454 23.5796 40.7044C23.1466 39.645 22.9338 34.8677 23.0848 29.5919C23.0867 29.5217 23.0765 29.454 23.0568 29.3902C23.0391 29.2642 23.0123 29.1396 22.9764 29.0174C22.7519 28.2497 22.2048 27.6076 21.5485 27.3414C21.2877 27.2357 20.8091 27.0417 20.234 27.1857C20.3566 26.6911 20.5693 26.1326 20.8 25.5279L20.8967 25.2736C21.0056 24.9869 21.1423 24.6898 21.2868 24.3753C22.0679 22.6772 23.1377 20.3513 21.9766 15.0969C21.5418 13.1288 20.0895 12.1677 17.888 12.391C16.5682 12.5246 15.3607 13.0457 14.7585 13.3445C14.6289 13.4086 14.5105 13.4707 14.3999 13.5311C14.568 11.5481 15.203 7.84232 17.5786 5.49764C19.0744 4.02165 21.0664 3.29262 23.4934 3.33194C28.2756 3.4085 31.3422 5.81008 33.0729 7.81145C34.5643 9.53591 35.3718 11.2731 35.6941 12.2101C33.2704 11.9689 31.622 12.437 30.7865 13.6061C28.9686 16.149 31.781 21.0846 33.1326 23.4567C33.3806 23.8914 33.5945 24.2671 33.6618 24.4268C34.1019 25.4707 34.6718 26.1676 35.0878 26.6763C35.2154 26.8322 35.3391 26.9834 35.4332 27.1155C34.6991 27.3226 33.3806 27.8011 33.5007 30.1928C33.4038 31.3929 32.7147 37.0117 32.3646 38.9968C31.9024 41.6195 30.9162 42.5963 28.1433 43.1782V43.178ZM40.1434 29.7397C39.3928 30.0806 38.1367 30.3363 36.9434 30.3913C35.6254 30.4516 34.9544 30.2468 34.7965 30.1207C34.7225 28.6303 35.2894 28.4746 35.8894 28.3097C35.9836 28.2839 36.0756 28.2585 36.1644 28.2282C36.2196 28.2721 36.28 28.3158 36.3462 28.3585C37.4056 29.0427 39.295 29.1165 41.9626 28.5777L41.9918 28.572C41.632 28.9011 41.0164 29.3429 40.1434 29.7397Z" fill="white"/>
<path d="M45.8113 27.5647C45.5409 26.7631 44.8323 26.2048 43.9161 26.0708C43.484 26.0077 42.9893 26.0346 42.4037 26.1527C41.3832 26.3588 40.626 26.4372 40.0734 26.4524C42.1592 23.0064 43.8551 19.0768 44.8315 15.3777C46.4102 9.39635 45.5666 6.67147 44.5807 5.43896C41.9717 2.17662 38.1652 0.424064 33.5729 0.370439C31.1232 0.341126 28.9726 0.814441 27.8507 1.15481C26.8062 0.974454 25.6831 0.873756 24.5046 0.855134C22.2956 0.820648 20.3438 1.29189 18.676 2.26042C17.7527 1.95488 16.2708 1.52415 14.5595 1.2493C10.5347 0.602699 7.29079 1.10653 4.91804 2.74684C2.04486 4.73286 0.712941 8.18349 0.959273 13.0028C1.03751 14.533 1.91218 19.1885 3.28939 23.6037C4.08089 26.1415 4.92491 28.2489 5.798 29.868C7.03618 32.1639 8.36105 33.5159 9.84838 34.0015C10.682 34.2732 12.1966 34.4636 13.7897 33.1652C13.9916 33.4045 14.261 33.6423 14.6186 33.8632C15.0726 34.1434 15.6279 34.3724 16.1824 34.5081C18.1807 34.9969 20.0525 34.8746 21.6494 34.1894C21.6593 34.4674 21.6669 34.7329 21.6732 34.9622C21.6838 35.3342 21.6944 35.6988 21.7083 36.0399C21.8029 38.346 21.9633 40.139 22.4383 41.3936C22.4644 41.4626 22.4994 41.5678 22.5364 41.6793C22.7734 42.3894 23.1697 43.5781 24.178 44.509C25.222 45.4734 26.4848 45.7691 27.6414 45.7691C28.2215 45.7691 28.7749 45.6947 29.2604 45.5929C30.9907 45.23 32.9559 44.6772 34.3775 42.6963C35.7216 40.8237 36.3749 38.0033 36.4932 33.5594C36.5085 33.4337 36.5226 33.3136 36.5362 33.1993L36.5644 32.9645L36.881 32.9917L36.9626 32.9971C38.725 33.0757 40.8799 32.71 42.2034 32.1084C43.2492 31.6335 46.6004 29.9022 45.8113 27.5647Z" fill="black"/>
<path d="M42.7979 28.0192C37.5577 29.0771 37.1973 27.3409 37.1973 27.3409C42.7301 19.307 45.0431 9.10905 43.0473 6.61316C37.6019 -0.195166 28.1759 3.02476 28.0185 3.10821L27.9679 3.11718C26.9326 2.90681 25.774 2.78163 24.4717 2.76077C22.1007 2.72283 20.302 3.36909 18.9372 4.38194C18.9372 4.38194 2.12204 -2.3969 2.90421 12.9075C3.07055 16.1633 7.67299 37.5428 13.1624 31.0852C15.1689 28.7238 17.1076 26.7272 17.1076 26.7272C18.0704 27.3531 19.2231 27.6725 20.4315 27.5578L20.5255 27.4799C20.4962 27.773 20.5096 28.0598 20.563 28.3993C19.1488 29.9454 19.5644 30.2168 16.7374 30.7864C13.8768 31.3633 15.5572 32.3903 16.6544 32.6589C17.9846 32.9843 21.0618 33.4454 23.141 30.597L23.0582 30.9221C23.6122 31.3564 24.0012 33.747 23.9361 35.9142C23.8709 38.0813 23.8273 39.5692 24.2638 40.7313C24.7006 41.8935 25.1356 44.5084 28.8521 43.7292C31.9574 43.0779 33.5666 41.3903 33.7906 38.5753C33.9494 36.5741 34.309 36.87 34.3315 35.0807L34.62 34.2337C34.9525 31.5209 34.6728 30.6457 36.5859 31.0528L37.0511 31.0928C38.4589 31.1554 40.302 30.871 41.3837 30.3791C43.7128 29.3214 45.0942 27.5552 42.7976 28.0192H42.7979Z" fill="#336791"/>
<path d="M19.9214 14.3635C19.4492 14.2992 19.0215 14.3587 18.8052 14.5191C18.6836 14.6092 18.6459 14.7137 18.6357 14.7856C18.6085 14.9762 18.7449 15.1869 18.8288 15.2955C19.0659 15.6031 19.4124 15.8145 19.7553 15.8611C19.8049 15.868 19.8545 15.8711 19.9036 15.8711C20.4754 15.8711 20.9954 15.4353 21.0412 15.1138C21.0985 14.711 20.5009 14.4425 19.9214 14.3637V14.3635ZM35.5655 14.3763C35.5204 14.0606 34.9463 13.9706 34.4015 14.0447C33.8574 14.1189 33.3298 14.3592 33.3739 14.6756C33.4091 14.9217 33.8632 15.3417 34.4006 15.3417C34.446 15.3417 34.4919 15.3388 34.538 15.3324C34.8968 15.2838 35.16 15.0608 35.2851 14.9324C35.4754 14.7365 35.5857 14.5182 35.5655 14.3763Z" fill="white"/>
<path d="M44.5417 27.8991C44.3419 27.3078 43.6988 27.1176 42.6303 27.3335C39.4577 27.9742 38.3216 27.5304 37.9485 27.2616C40.4145 23.5854 42.4431 19.1416 43.5375 14.9956C44.0559 13.0316 44.3423 11.2077 44.3657 9.72099C44.3916 8.0893 44.1076 6.89024 43.5219 6.15776C41.1604 3.20493 37.6944 1.621 33.499 1.57755C30.6148 1.54582 28.1779 2.26813 27.7055 2.47125C26.7106 2.22916 25.6261 2.08052 24.4453 2.06156C22.2801 2.02724 20.4085 2.53453 18.859 3.56858C18.1859 3.32339 16.4464 2.73903 14.3191 2.40366C10.6413 1.8243 7.71883 2.2633 5.63328 3.70911C3.14475 5.43443 1.9959 8.51848 2.21845 12.8754C2.29333 14.3412 3.14687 18.8506 4.49377 23.169C6.26673 28.8529 8.19405 32.0706 10.2218 32.7326C10.4591 32.81 10.7328 32.8641 11.0346 32.8641C11.7743 32.8641 12.6813 32.5379 13.6248 31.4278C14.7757 30.0768 15.9662 28.7585 17.1949 27.4747C17.992 27.8934 18.8678 28.1272 19.7634 28.1506C19.7652 28.1736 19.7675 28.1965 19.7696 28.2193C19.6154 28.3992 19.4644 28.5817 19.3167 28.7667C18.6961 29.5377 18.567 29.6982 16.5694 30.1006C16.0011 30.2155 14.4919 30.5198 14.4697 31.5551C14.4458 32.6862 16.2538 33.1612 16.4598 33.2116C17.1776 33.3875 17.8692 33.4742 18.5288 33.4742C20.1327 33.4742 21.5443 32.9583 22.6724 31.9601C22.6377 35.9925 22.8095 39.9659 23.3042 41.1766C23.7095 42.1677 24.6994 44.5898 27.8263 44.5896C28.2852 44.5896 28.7902 44.5374 29.3457 44.4208C32.6092 43.7363 34.0264 42.3248 34.5746 39.2129C34.868 37.5499 35.3714 33.5787 35.6082 31.4485C36.1079 31.6011 36.7512 31.6709 37.4467 31.6708C38.8972 31.6708 40.571 31.3692 41.6206 30.8924C42.7998 30.3565 44.9276 29.0416 44.5417 27.8991ZM36.7701 13.5048C36.7593 14.1336 36.6709 14.7045 36.5771 15.3004C36.4762 15.9413 36.3719 16.604 36.3456 17.4084C36.3197 18.1912 36.4196 19.005 36.5162 19.7922C36.7114 21.382 36.9117 23.0187 36.1363 24.6336C36.0075 24.4103 35.8927 24.1794 35.7927 23.9424C35.6963 23.7137 35.487 23.3464 35.1971 22.8381C34.0696 20.8593 31.4292 16.2255 32.7808 14.3347C33.1835 13.7718 34.2053 13.1932 36.7701 13.5048ZM33.6611 2.85093C37.4203 2.93215 40.3939 4.3083 42.4992 6.94093C44.1139 8.96024 42.3358 18.1484 37.1884 26.0751C37.1366 26.0107 37.0846 25.9465 37.0323 25.8825L36.9671 25.8029C38.2972 23.6532 38.0372 21.5263 37.8056 19.6406C37.7105 18.8668 37.6206 18.1358 37.6435 17.4492C37.6671 16.7216 37.7655 16.0974 37.8606 15.4939C37.9774 14.7502 38.0964 13.9807 38.0636 13.0735C38.0881 12.9783 38.098 12.8659 38.0851 12.7325C38.0014 11.8626 36.9865 9.25906 34.9178 6.90265C33.7862 5.61375 32.1361 4.17139 29.883 3.19855C30.8521 3.00198 32.1773 2.81869 33.6611 2.85093ZM12.6263 30.6153C11.5867 31.8385 10.8688 31.604 10.6327 31.5271C9.09445 31.025 7.3095 27.8434 5.73583 22.7981C4.37413 18.4326 3.57839 14.0427 3.51531 12.8118C3.31655 8.91868 4.28091 6.20553 6.38179 4.74747C9.80085 2.37486 15.4221 3.79498 17.6809 4.51521C17.6484 4.54659 17.6146 4.57591 17.5825 4.60781C13.8759 8.27087 13.9638 14.5293 13.973 14.9119C13.9727 15.0595 13.9853 15.2685 14.0026 15.556C14.0664 16.6086 14.1852 18.5678 13.868 20.7864C13.5734 22.8481 14.2229 24.8661 15.6496 26.3229C15.796 26.4721 15.9499 26.6142 16.1107 26.7485C15.4757 27.414 14.0955 28.8859 12.6263 30.6153ZM16.5872 25.4437C15.4373 24.2695 14.915 22.6362 15.1541 20.9623C15.4889 18.6186 15.3654 16.5774 15.2989 15.4808C15.2896 15.3273 15.2813 15.1928 15.2766 15.0868C15.818 14.6169 18.3274 13.3013 20.1169 13.7025C20.9334 13.8855 21.431 14.4297 21.6379 15.3656C22.7085 20.2114 21.7795 22.231 21.0331 23.8541C20.8793 24.1884 20.7339 24.5045 20.6099 24.8314L20.5137 25.0842C20.2702 25.7232 20.0436 26.3174 19.9031 26.8816C18.6806 26.8781 17.4914 26.367 16.5872 25.4435V25.4437ZM16.7748 31.9787C16.4178 31.8915 16.0968 31.7399 15.9084 31.6142C16.0658 31.5418 16.3458 31.4432 16.8314 31.3452C19.1814 30.8719 19.5444 30.5377 20.337 29.553C20.5186 29.3271 20.7246 29.0712 21.0099 28.7595L21.0102 28.7591C21.4351 28.2936 21.6294 28.3726 21.9818 28.5157C22.2674 28.6312 22.5457 28.9816 22.6584 29.3671C22.7118 29.5492 22.7717 29.8948 22.5756 30.1637C20.92 32.4322 18.5074 32.4031 16.7748 31.9787ZM29.0737 43.1783C26.1987 43.7811 25.1808 42.3456 24.51 40.7046C24.0771 39.6452 23.8642 34.8679 24.0152 29.5921C24.0172 29.522 24.0069 29.4542 23.9872 29.3904C23.9695 29.2644 23.9427 29.1398 23.9068 29.0176C23.6824 28.25 23.1353 27.6078 22.4789 27.3416C22.2181 27.2359 21.7395 27.0419 21.1644 27.1859C21.2871 26.6914 21.4997 26.1329 21.7304 25.5282L21.8271 25.2738C21.936 24.9871 22.0727 24.69 22.2172 24.3755C22.9983 22.6774 24.0681 20.3515 22.9071 15.0971C22.4722 13.129 21.0199 12.1679 18.8184 12.3912C17.4987 12.5248 16.2911 13.0459 15.6889 13.3447C15.5594 13.4089 15.441 13.471 15.3303 13.5313C15.4984 11.5484 16.1334 7.84256 18.509 5.49788C20.0048 4.02189 21.9968 3.29287 24.4238 3.33218C29.206 3.40874 32.2727 5.81032 34.0033 7.8117C35.4947 9.53615 36.3023 11.2734 36.6245 12.2103C34.2009 11.9691 32.5525 12.4373 31.7169 13.6063C29.899 16.1493 32.7114 21.0849 34.0631 23.457C34.311 23.8917 34.5249 24.2674 34.5922 24.4271C35.0324 25.4709 35.6022 26.1679 36.0182 26.6766C36.1458 26.8324 36.2695 26.9836 36.3636 27.1157C35.6295 27.3228 34.311 27.8013 34.4312 30.1931C34.3342 31.3932 33.6451 37.0119 33.295 38.9971C32.8328 41.6197 31.8466 42.5965 29.0737 43.1785V43.1783ZM41.0739 29.7399C40.3232 30.0808 39.0671 30.3365 37.8738 30.3915C36.5558 30.4519 35.8848 30.247 35.727 30.121C35.653 28.6305 36.2198 28.4748 36.8198 28.31C36.914 28.2841 37.006 28.2588 37.0948 28.2284C37.15 28.2724 37.2104 28.316 37.2767 28.3588C38.336 29.043 40.2254 29.1168 42.893 28.5779L42.9222 28.5722C42.5624 28.9014 41.9468 29.3432 41.0739 29.7399Z" fill="white"/>
</svg>
