<svg width="45" height="46" viewBox="0 0 45 46" fill="none" xmlns="http://www.w3.org/2000/svg">
<path d="M22.3379 0.551147C10.9141 0.551147 11.6273 5.57535 11.6273 5.57535L11.64 10.7806H22.5416V12.3433H7.3101C7.3101 12.3433 0 11.5025 0 23.1923C0 34.8824 6.38044 34.4679 6.38044 34.4679H10.1883V29.0432C10.1883 29.0432 9.98298 22.5724 16.4669 22.5724H27.2792C27.2792 22.5724 33.354 22.6719 33.354 16.6182V6.60878C33.354 6.60878 34.2766 0.551147 22.3379 0.551147ZM16.3268 4.05156C16.5844 4.05132 16.8395 4.10261 17.0776 4.20248C17.3156 4.30235 17.5319 4.44885 17.714 4.63358C17.8962 4.81832 18.0407 5.03768 18.1391 5.27909C18.2376 5.52051 18.2882 5.77925 18.2879 6.04051C18.2882 6.30177 18.2376 6.56051 18.1391 6.80193C18.0407 7.04334 17.8962 7.2627 17.714 7.44744C17.5319 7.63217 17.3156 7.77867 17.0776 7.87854C16.8395 7.97841 16.5844 8.0297 16.3268 8.02946C16.0692 8.0297 15.814 7.97841 15.576 7.87854C15.3379 7.77867 15.1216 7.63217 14.9395 7.44744C14.7573 7.2627 14.6129 7.04334 14.5144 6.80193C14.4159 6.56051 14.3654 6.30177 14.3656 6.04051C14.3654 5.77925 14.4159 5.52051 14.5144 5.27909C14.6129 5.03768 14.7573 4.81832 14.9395 4.63358C15.1216 4.44885 15.3379 4.30235 15.576 4.20248C15.814 4.10261 16.0692 4.05132 16.3268 4.05156Z" fill="url(#paint0_linear_208_345)"/>
<path d="M22.6623 45.9512C34.0861 45.9512 33.3728 40.927 33.3728 40.927L33.3601 35.7219H22.4584V34.1592H37.6899C37.6899 34.1592 45 35 45 23.3098C45 11.6198 38.6196 12.0344 38.6196 12.0344H34.8117V17.4589C34.8117 17.4589 35.017 23.9297 28.5331 23.9297H17.7208C17.7208 23.9297 11.646 23.8302 11.646 29.8841V39.8937C11.646 39.8937 10.7236 45.9512 22.6621 45.9512H22.6623ZM28.6734 42.4511C28.4158 42.4514 28.1607 42.4001 27.9226 42.3002C27.6846 42.2003 27.4683 42.0538 27.2861 41.8691C27.104 41.6844 26.9595 41.465 26.861 41.2236C26.7626 40.9822 26.712 40.7234 26.7122 40.4622C26.712 40.2009 26.7625 39.9421 26.861 39.7007C26.9595 39.4593 27.1039 39.2399 27.2861 39.0551C27.4682 38.8704 27.6845 38.7239 27.9226 38.624C28.1606 38.5241 28.4158 38.4728 28.6734 38.473C28.931 38.4728 29.1861 38.5241 29.4242 38.624C29.6622 38.7238 29.8785 38.8703 30.0607 39.0551C30.2428 39.2398 30.3873 39.4592 30.4858 39.7006C30.5842 39.942 30.6348 40.2007 30.6346 40.462C30.6348 40.7232 30.5842 40.982 30.4858 41.2234C30.3873 41.4648 30.2428 41.6842 30.0607 41.8689C29.8785 42.0537 29.6622 42.2001 29.4242 42.3C29.1861 42.3999 28.931 42.4512 28.6734 42.4509V42.4511Z" fill="url(#paint1_linear_208_345)"/>
<path d="M22.3379 0.551392C10.9141 0.551392 11.6273 5.57559 11.6273 5.57559L11.64 10.7808H22.5416V12.3436H7.3101C7.3101 12.3436 0 11.5028 0 23.1926C0 34.8827 6.38044 34.4681 6.38044 34.4681H10.1883V29.0434C10.1883 29.0434 9.98298 22.5726 16.4669 22.5726H27.2792C27.2792 22.5726 33.354 22.6722 33.354 16.6185V6.60903C33.354 6.60903 34.2766 0.551392 22.3379 0.551392ZM16.3268 4.0518C16.5844 4.05157 16.8395 4.10285 17.0776 4.20272C17.3156 4.30259 17.5319 4.44909 17.714 4.63383C17.8962 4.81857 18.0407 5.03792 18.1391 5.27934C18.2376 5.52075 18.2882 5.7795 18.2879 6.04075C18.2882 6.30201 18.2376 6.56075 18.1391 6.80217C18.0407 7.04359 17.8962 7.26294 17.714 7.44768C17.5319 7.63242 17.3156 7.77891 17.0776 7.87878C16.8395 7.97866 16.5844 8.02994 16.3268 8.02971C16.0692 8.02994 15.814 7.97866 15.576 7.87878C15.3379 7.77891 15.1216 7.63242 14.9395 7.44768C14.7573 7.26294 14.6129 7.04359 14.5144 6.80217C14.4159 6.56075 14.3654 6.30201 14.3656 6.04075C14.3654 5.7795 14.4159 5.52075 14.5144 5.27934C14.6129 5.03792 14.7573 4.81857 14.9395 4.63383C15.1216 4.44909 15.3379 4.30259 15.576 4.20272C15.814 4.10285 16.0692 4.05157 16.3268 4.0518Z" fill="url(#paint2_linear_208_345)"/>
<path d="M22.6623 45.9514C34.0861 45.9514 33.3728 40.9272 33.3728 40.9272L33.3601 35.7222H22.4584V34.1594H37.6899C37.6899 34.1594 45 35.0002 45 23.31C45 11.6201 38.6196 12.0347 38.6196 12.0347H34.8117V17.4592C34.8117 17.4592 35.017 23.93 28.5331 23.93H17.7208C17.7208 23.93 11.646 23.8304 11.646 29.8843V39.894C11.646 39.894 10.7236 45.9514 22.6621 45.9514H22.6623ZM28.6734 42.4514C28.4158 42.4516 28.1607 42.4003 27.9226 42.3004C27.6846 42.2006 27.4683 42.0541 27.2861 41.8693C27.104 41.6846 26.9595 41.4652 26.861 41.2238C26.7626 40.9824 26.712 40.7237 26.7122 40.4624C26.712 40.2011 26.7625 39.9424 26.861 39.7009C26.9595 39.4595 27.1039 39.2401 27.2861 39.0554C27.4682 38.8706 27.6845 38.7241 27.9226 38.6242C28.1606 38.5243 28.4158 38.473 28.6734 38.4733C28.931 38.473 29.1861 38.5243 29.4242 38.6242C29.6622 38.7241 29.8785 38.8706 30.0607 39.0553C30.2428 39.24 30.3873 39.4594 30.4858 39.7008C30.5842 39.9422 30.6348 40.201 30.6346 40.4622C30.6348 40.7235 30.5842 40.9822 30.4858 41.2236C30.3873 41.4651 30.2428 41.6844 30.0607 41.8692C29.8785 42.0539 29.6622 42.2004 29.4242 42.3003C29.1861 42.4001 28.931 42.4514 28.6734 42.4512V42.4514Z" fill="url(#paint3_linear_208_345)"/>
<defs>
<linearGradient id="paint0_linear_208_345" x1="4.32448" y1="4.6346" x2="26.9355" y2="26.7074" gradientUnits="userSpaceOnUse">
<stop stop-color="#387EB8"/>
<stop offset="1" stop-color="#366994"/>
</linearGradient>
<linearGradient id="paint1_linear_208_345" x1="18.0126" y1="19.0127" x2="42.2785" y2="41.6317" gradientUnits="userSpaceOnUse">
<stop stop-color="#FFE052"/>
<stop offset="1" stop-color="#FFC331"/>
</linearGradient>
<linearGradient id="paint2_linear_208_345" x1="4.32448" y1="4.63484" x2="26.9355" y2="26.7077" gradientUnits="userSpaceOnUse">
<stop stop-color="#387EB8"/>
<stop offset="1" stop-color="#366994"/>
</linearGradient>
<linearGradient id="paint3_linear_208_345" x1="18.0126" y1="19.0129" x2="42.2785" y2="41.6319" gradientUnits="userSpaceOnUse">
<stop stop-color="#FFE052"/>
<stop offset="1" stop-color="#FFC331"/>
</linearGradient>
</defs>
</svg>
