<svg width="45" height="46" viewBox="0 0 45 46" fill="none" xmlns="http://www.w3.org/2000/svg">
<path d="M22.5 27.2945C24.7135 27.2945 26.5078 25.4842 26.5078 23.2511C26.5078 21.018 24.7135 19.2076 22.5 19.2076C20.2865 19.2076 18.4922 21.018 18.4922 23.2511C18.4922 25.4842 20.2865 27.2945 22.5 27.2945Z" fill="#61DAFB"/>
<path d="M37.7227 16.583C36.9492 16.2992 36.1406 16.0155 35.2969 15.7672C35.5078 14.9159 35.6836 14.0647 35.8242 13.2489C36.5625 8.56704 35.7539 5.26845 33.5039 3.99157C32.8359 3.60142 32.0977 3.42407 31.2539 3.42407C28.793 3.42407 25.6641 5.26845 22.5 8.35423C19.3359 5.26845 16.207 3.42407 13.7461 3.42407C12.9023 3.42407 12.1641 3.60142 11.4961 3.99157C9.24609 5.30392 8.4375 8.60251 9.17578 13.2489C9.31641 14.0647 9.49219 14.9159 9.70312 15.7672C8.85938 16.0155 8.05078 16.2638 7.27734 16.583C2.88281 18.2855 0.492188 20.6264 0.492188 23.2511C0.492188 25.8758 2.91797 28.2167 7.27734 29.9192C8.05078 30.203 8.85938 30.4867 9.70312 30.735C9.49219 31.5863 9.31641 32.4375 9.17578 33.2533C8.4375 37.9352 9.24609 41.2338 11.4961 42.5106C12.1641 42.9008 12.9023 43.0781 13.7461 43.0781C16.2422 43.0781 19.3711 41.2338 22.5 38.148C25.6641 41.2338 28.793 43.0781 31.2539 43.0781C32.0977 43.0781 32.8359 42.9008 33.5039 42.5106C35.7539 41.1983 36.5625 37.8997 35.8242 33.2533C35.6836 32.4375 35.5078 31.5863 35.2969 30.735C36.1406 30.4867 36.9492 30.2384 37.7227 29.9192C42.1172 28.2167 44.5078 25.8758 44.5078 23.2511C44.5078 20.6264 42.1172 18.2855 37.7227 16.583ZM32.5195 5.76501C33.9609 6.61626 34.4531 9.24095 33.8555 12.9652C33.75 13.71 33.5742 14.4903 33.3633 15.3061C31.5352 14.8805 29.6016 14.5967 27.5625 14.4194C26.3672 12.7169 25.1367 11.1917 23.9062 9.80845C26.5078 7.21923 29.1445 5.44579 31.2891 5.44579C31.7461 5.44579 32.168 5.5522 32.5195 5.76501ZM28.582 26.798C27.9492 27.933 27.2109 29.068 26.4375 30.203C25.1367 30.3094 23.8359 30.3449 22.5 30.3449C21.1289 30.3449 19.8281 30.3094 18.5625 30.203C17.7891 29.068 17.0859 27.933 16.4531 26.798C15.7852 25.6275 15.1523 24.4216 14.5898 23.2511C15.1523 22.0806 15.7852 20.8747 16.4531 19.7042C17.0859 18.5692 17.8242 17.4342 18.5977 16.2992C19.8984 16.1928 21.1992 16.1574 22.5352 16.1574C23.9062 16.1574 25.207 16.1928 26.4727 16.2992C27.2461 17.4342 27.9492 18.5692 28.582 19.7042C29.25 20.8747 29.8828 22.0806 30.4453 23.2511C29.8477 24.4216 29.25 25.592 28.582 26.798ZM31.5 25.6275C32.0273 26.8689 32.4492 28.0749 32.8359 29.2808C31.6406 29.5645 30.375 29.7774 29.0391 29.9547C29.4609 29.2808 29.918 28.5714 30.3047 27.8266C30.7266 27.0817 31.1133 26.3369 31.5 25.6275ZM22.5 35.2395C21.6562 34.3174 20.8477 33.3242 20.0742 32.2956C20.8828 32.3311 21.6914 32.3666 22.5 32.3666C23.3086 32.3666 24.1172 32.3311 24.9258 32.2956C24.1523 33.3242 23.3438 34.3174 22.5 35.2395ZM15.9609 29.9192C14.625 29.7419 13.3594 29.5291 12.1641 29.2453C12.5508 28.0749 12.9727 26.8334 13.5 25.592C13.8867 26.3014 14.2734 27.0463 14.6953 27.7556C15.1172 28.5359 15.5391 29.2099 15.9609 29.9192ZM13.5 20.8747C12.9727 19.6333 12.5508 18.4274 12.1641 17.2214C13.3594 16.9377 14.625 16.7249 15.9609 16.5475C15.5391 17.2214 15.082 17.9308 14.6953 18.6756C14.2734 19.4205 13.8867 20.1653 13.5 20.8747ZM22.5 11.2627C23.3438 12.1849 24.1523 13.178 24.9258 14.2066C24.1172 14.1711 23.3086 14.1356 22.5 14.1356C21.6914 14.1356 20.8828 14.1711 20.0742 14.2066C20.8477 13.178 21.6562 12.1849 22.5 11.2627ZM30.3047 18.7111L29.0391 16.583C30.375 16.7603 31.6406 16.9731 32.8359 17.2569C32.4492 18.4274 32.0273 19.6688 31.5 20.9102C31.1133 20.1653 30.7266 19.4205 30.3047 18.7111ZM11.1445 12.9652C10.5469 9.24095 11.0391 6.61626 12.4805 5.76501C12.832 5.5522 13.2539 5.44579 13.7109 5.44579C15.8203 5.44579 18.457 7.18376 21.0938 9.80845C19.8633 11.1563 18.6328 12.7169 17.4375 14.4194C15.3984 14.5967 13.4648 14.9159 11.6367 15.3061C11.4258 14.4903 11.2852 13.71 11.1445 12.9652ZM2.46094 23.2511C2.46094 21.5841 4.46484 19.8106 7.98047 18.4983C8.68359 18.2145 9.45703 17.9663 10.2305 17.7534C10.793 19.5269 11.4961 21.4067 12.3398 23.2866C11.4961 25.1664 10.7578 27.0108 10.2305 28.7842C5.37891 27.3655 2.46094 25.2374 2.46094 23.2511ZM12.4805 40.7372C11.0391 39.8859 10.5469 37.2613 11.1445 33.537C11.25 32.7922 11.4258 32.0119 11.6367 31.1961C13.4648 31.6217 15.3984 31.9055 17.4375 32.0828C18.6328 33.7853 19.8633 35.3105 21.0938 36.6938C18.4922 39.283 15.8555 41.0564 13.7109 41.0564C13.2539 41.0564 12.832 40.95 12.4805 40.7372ZM33.8555 33.537C34.4531 37.2613 33.9609 39.8859 32.5195 40.7372C32.168 40.95 31.7461 41.0564 31.2891 41.0564C29.1797 41.0564 26.543 39.3185 23.9062 36.6938C25.1367 35.3459 26.3672 33.7853 27.5625 32.0828C29.6016 31.9055 31.5352 31.5863 33.3633 31.1961C33.5742 32.0119 33.7148 32.7922 33.8555 33.537ZM37.0195 28.0039C36.3164 28.2877 35.543 28.5359 34.7695 28.7488C34.207 26.9753 33.5039 25.0955 32.6602 23.2156C33.5039 21.3358 34.2422 19.4914 34.7695 17.718C39.6211 19.1367 42.5391 21.2649 42.5391 23.2511C42.5391 24.9181 40.5 26.6916 37.0195 28.0039Z" fill="#61DAFB"/>
</svg>
