<svg width="45" height="44" viewBox="0 0 45 44" fill="none" xmlns="http://www.w3.org/2000/svg">
<path d="M6.8455 6.4566C15.7363 -1.90573 29.9524 -1.68094 38.5654 6.99611C39.5379 5.73726 40.3714 4.34354 40.9734 2.90486C43.7981 11.2672 45.5114 18.2808 44.8631 23.7208C44.539 28.3066 42.6867 32.7125 39.6305 36.2193C31.6658 45.3909 17.496 46.5599 8.04947 38.8269L7.86875 38.6708L7.85914 38.6647C7.82955 38.6447 7.80037 38.6238 7.77163 38.6021C7.6854 38.537 7.60711 38.4661 7.53674 38.3905L7.51139 38.3624L7.21595 38.1076C6.92782 37.8678 6.63969 37.628 6.38409 37.3567L6.28982 37.2534C-2.32318 28.6213 -2.04534 14.8189 6.8455 6.4566ZM10.1796 35.7248C9.34605 35.0954 8.14208 35.1853 7.49379 35.9945C6.92374 36.7061 6.92655 37.6958 7.50221 38.3523L7.51139 38.3624L7.86875 38.6708L7.90381 38.694C8.71322 39.2108 9.80222 39.104 10.4234 38.3736L10.4574 38.3324C11.1057 37.5231 10.9668 36.3542 10.1796 35.7248ZM40.7418 5.1528C38.4265 9.87347 32.6845 13.4702 27.7297 14.5941C23.0528 15.6732 18.9778 14.774 14.6713 16.3925C4.85432 20.0342 5.03955 31.3638 10.4111 33.9264L10.7352 34.1063C10.7352 34.1063 14.6153 33.3573 18.4522 32.3681L18.7808 32.2828C20.3133 31.8818 21.821 31.4447 23.0528 31.0041C29.4431 28.7112 36.4816 23.0464 38.797 16.4824C37.593 23.3162 31.5268 29.9251 25.4607 32.9373C22.2192 34.5559 19.7187 34.9155 14.3935 36.7139C13.7452 36.9387 13.2358 37.1635 13.2358 37.1635C13.3008 37.1548 13.3657 37.1463 13.4306 37.138L13.56 37.1217L13.6887 37.106C14.8648 36.9645 15.9216 36.8937 15.9216 36.8937C23.4695 36.534 35.324 38.9618 40.8344 31.8134C46.4838 24.53 43.335 12.7508 40.7418 5.1528Z" fill="#6DB33F"/>
<path d="M10.1797 35.7248C10.9669 36.3542 11.1058 37.5232 10.4575 38.3324C9.80922 39.1417 8.60525 39.2316 7.77173 38.6022C6.93822 37.9728 6.8456 36.8038 7.49389 35.9946C8.14219 35.1853 9.34615 35.0954 10.1797 35.7248ZM40.7419 5.15283C43.3351 12.7509 46.4839 24.5301 40.8345 31.8134C35.3241 38.9618 23.4696 36.5341 15.9217 36.8937C15.9217 36.8937 14.8649 36.9645 13.6888 37.106L13.5601 37.1217C13.4525 37.1351 13.3442 37.149 13.2359 37.1635C13.2359 37.1635 13.7453 36.9387 14.3936 36.7139C19.7188 34.9156 22.2194 34.5559 25.4608 32.9374C31.527 29.9251 37.5931 23.3162 38.7971 16.4824C36.4817 23.0464 29.4432 28.7112 23.0529 31.0041C18.6538 32.5777 10.7353 34.1063 10.7353 34.1063L10.4112 33.9265C5.03965 31.3638 4.85443 20.0342 14.6714 16.3925C18.9779 14.774 23.0529 15.6732 27.7298 14.5942C32.6846 13.4702 38.4266 9.87351 40.7419 5.15283Z" fill="white"/>
</svg>
