<svg width="45" height="46" viewBox="0 0 45 46" fill="none" xmlns="http://www.w3.org/2000/svg">
<path d="M0 0.560059H45V45.9601H0V0.560059Z" fill="#017ACB"/>
<path d="M21.6071 17.3722H23.7657V21.1319H17.9297V37.859L17.775 37.9015C17.5641 37.9583 14.7867 37.9583 14.1891 37.8945L13.7109 37.8519V21.1319H7.875V17.3722L9.72422 17.351C10.7367 17.3368 13.3383 17.3368 15.5039 17.351C17.6695 17.3651 20.4117 17.3722 21.6071 17.3722ZM38.0813 36.0855C37.2235 37.0006 36.3024 37.5114 34.7696 37.9299C34.1016 38.1144 33.9891 38.1215 32.4844 38.1144C30.9797 38.1073 30.8602 38.1073 30.1289 37.9157C28.2375 37.4263 26.7118 36.4686 25.6711 35.1137C25.3758 34.7306 24.8907 33.9361 24.8907 33.8368C24.8907 33.8085 24.961 33.7446 25.0524 33.702C25.1438 33.6595 25.3336 33.5389 25.4883 33.4467C25.643 33.3545 25.9242 33.1842 26.1141 33.0849C26.3039 32.9856 26.8524 32.6593 27.3305 32.3684C27.8086 32.0776 28.2446 31.8435 28.2938 31.8435C28.343 31.8435 28.4344 31.9428 28.5047 32.0634C28.9266 32.7799 29.911 33.695 30.6071 34.0071C31.036 34.1915 31.9852 34.3972 32.4422 34.3972C32.8641 34.3972 33.6375 34.2128 34.0524 34.0213C34.4954 33.8155 34.7204 33.6098 34.9875 33.1984C35.1704 32.9075 35.1915 32.8295 35.1844 32.2762C35.1844 31.7655 35.1563 31.6236 35.0157 31.3895C34.6219 30.7369 34.0875 30.3964 31.9219 29.4316C29.686 28.4314 28.6805 27.8355 27.8649 27.0339C27.2602 26.438 27.1407 26.2749 26.761 25.53C26.2688 24.5724 26.2055 24.2603 26.1985 22.8344C26.1914 21.8342 26.2125 21.5079 26.318 21.1674C26.4657 20.6566 26.9438 19.6706 27.1618 19.4223C27.6118 18.8903 27.7735 18.7271 28.0899 18.4647C29.0461 17.6702 30.5368 17.1452 31.9641 17.0956C32.1258 17.0956 32.6602 17.124 33.1594 17.1594C34.5938 17.28 35.5711 17.6347 36.5133 18.3937C37.2235 18.9612 38.2993 20.2949 38.1938 20.4722C38.1235 20.5786 35.318 22.4655 35.1352 22.5223C35.0227 22.5578 34.9454 22.5152 34.7907 22.3308C33.8344 21.1745 33.4477 20.9262 32.5196 20.8695C31.8586 20.8269 31.5071 20.9049 31.0641 21.2029C30.6 21.515 30.375 21.9903 30.375 22.65C30.3821 23.6147 30.7477 24.0687 32.0977 24.7426C32.9696 25.1754 33.7149 25.53 33.7711 25.53C33.8555 25.53 35.6625 26.438 36.1336 26.7218C38.3274 28.02 39.2204 29.3536 39.4524 31.652C39.6211 33.3828 39.136 34.9647 38.0813 36.0855Z" fill="white"/>
</svg>
