<svg width="47" height="16" viewBox="0 0 47 16" fill="none" xmlns="http://www.w3.org/2000/svg">
  <path d="M1.28 3.8L0 0.599999H9.28L8.68 3.8H1.28ZM1.1 4.8H5V6.52H8.32L7.72 9.72H5V15H1.1V4.8ZM10.5573 3.8L9.27734 0.599999H18.8573L18.2573 3.8H10.5573ZM10.3773 4.8H14.2773V6H18.0173L17.4173 9.2H14.2773V11.8H18.9973L18.3973 15H10.3773V4.8ZM24.0969 10.6H20.1969V0.599999H24.0969V10.6ZM20.1969 11.6H28.5169L27.8969 15H20.1969V11.6ZM29.5133 0.599999H33.4133V15H29.5133V0.599999ZM45.3164 15.2C44.5831 15.2 44.0297 14.9867 43.6564 14.56C43.2831 14.1333 43.0964 13.4933 43.0964 12.64V5.64H38.5564V15H36.8164V5.64H34.6364V4.28H46.9364V5.64H44.8364V12.52C44.8364 12.9867 44.9231 13.3133 45.0964 13.5C45.2697 13.6733 45.4897 13.76 45.7564 13.76C45.9431 13.76 46.1097 13.74 46.2564 13.7C46.4164 13.66 46.5431 13.6133 46.6364 13.56V14.94C46.5297 14.9933 46.3564 15.0467 46.1164 15.1C45.8897 15.1667 45.6231 15.2 45.3164 15.2Z" fill="#3E92E0" />
</svg>