<svg width="149" height="169" viewBox="0 0 149 169" fill="none" xmlns="http://www.w3.org/2000/svg">
<path d="M145.275 94.1524C142.905 94.1524 141.211 95.5071 140.534 97.5392H78.9023V79.5891H112.766C113.443 81.6212 115.475 82.9759 117.507 82.9759C120.216 82.9759 122.586 80.6052 122.586 77.8958C122.586 75.1863 120.216 72.8156 117.507 72.8156C115.136 72.8156 113.443 74.1703 112.766 76.2024H78.9023V59.6073H133.761L134.1 50.1244C136.47 49.7857 138.164 47.415 138.164 45.0442C138.164 42.3348 135.793 39.9641 133.084 39.9641C130.375 39.9641 128.005 42.3348 128.005 45.0442C128.005 47.0763 129.02 48.7696 130.714 49.447V56.2205H78.9023V38.2707H97.1887V17.6113C99.2205 16.9339 100.575 14.902 100.575 12.8699C100.575 10.1605 98.2046 7.78974 95.4955 7.78974C92.7864 7.78974 90.4159 10.1605 90.4159 12.8699C90.4159 15.2406 91.7705 16.9339 93.8023 17.6113V34.8839H78.9023V18.2887C78.9023 8.12834 70.775 0 60.6159 0C59.9386 0 59.2614 0 58.9227 0C58.5841 0 58.5841 0 58.2455 0C57.9068 0 57.9068 0 57.5682 0C56.8909 0 56.2136 0.338801 55.5364 0.338801C55.1977 0.338801 54.5205 0.677396 54.1818 0.677396C53.8432 0.677396 53.5045 1.01611 52.8273 1.35479C52.15 1.69347 51.4727 2.0321 50.7955 2.37078C50.4568 2.70946 50.1182 2.7095 49.7796 3.04818C49.1023 3.38685 48.7636 4.06429 48.0864 4.40297C47.7477 4.74165 47.4091 5.08028 47.0704 5.41896C46.7318 5.75764 46.3932 6.09627 46.0545 6.43495C45.7159 6.77363 45.3773 7.45098 45.0387 8.12834C44.7 8.46701 44.7 8.80565 44.3613 9.14433C44.0227 9.82168 43.6841 10.4992 43.3455 11.1765C43.3455 11.5152 43.0068 11.8538 43.0068 12.1925C42.6682 12.8699 42.6682 13.5471 42.3296 14.2245C42.3296 14.5632 42.3295 14.9019 41.9909 15.5793C41.9909 16.2566 41.9909 16.9339 41.6523 17.6113C41.6523 17.9499 41.6523 17.95 41.6523 18.2887C41.6523 18.966 41.6523 19.3047 41.6523 19.982V20.3206V20.6594C39.2818 20.9981 36.9114 21.3368 34.5409 22.3528C34.2023 22.3528 33.8636 22.6914 33.525 22.6914C32.8477 23.0301 32.1705 23.0301 31.4932 23.3688C31.4932 23.3688 31.4932 23.3688 31.1545 23.3688C19.6409 28.449 11.8523 39.9641 11.8523 53.5112C11.8523 56.5593 12.1909 59.2686 12.8682 62.3167C4.74092 69.7676 0 80.2665 0 91.4428C0 103.297 5.41819 114.473 14.5614 121.924C14.2227 123.278 13.8841 124.295 13.8841 125.649C13.8841 126.327 13.5455 127.004 13.5455 127.681C13.5455 128.02 13.5455 128.359 13.5455 128.359C13.5455 140.551 22.35 150.711 34.2023 153.082C36.9113 162.565 45.3773 169 55.5364 169C67.05 169 76.5319 160.194 77.5478 149.018C77.5478 148.679 77.5478 148.679 77.5478 148.341C77.5478 148.002 77.5478 147.325 77.5478 146.986V139.196H98.5432V151.389C96.5114 152.066 95.1568 154.098 95.1568 156.13C95.1568 158.84 97.5273 161.21 100.236 161.21C102.945 161.21 105.316 158.84 105.316 156.13C105.316 153.76 103.961 152.066 101.93 151.389V135.81H77.5478V118.198H117.507V128.02C115.475 128.697 114.12 130.729 114.12 132.762C114.12 135.471 116.491 137.842 119.2 137.842C121.909 137.842 124.28 135.471 124.28 132.762C124.28 130.391 122.925 128.697 120.893 128.02V114.812H77.5478V101.265H139.18C139.857 103.297 141.889 104.651 143.92 104.651C146.63 104.651 149 102.281 149 99.5712C149 96.8618 147.984 94.1524 145.275 94.1524ZM38.6045 151.05L38.2659 150.034H37.25C26.4136 148.679 18.625 139.535 18.625 128.697C18.625 127.681 18.625 126.665 18.9636 125.649C19.3022 123.956 20.3182 122.263 21.6727 120.569C23.7045 118.537 26.075 117.521 28.7841 117.521C31.4932 117.521 33.8636 118.537 35.8954 120.23C37.9273 122.262 38.9432 124.633 38.9432 127.343H42.3296C42.3296 123.617 40.975 120.569 38.2659 117.86C35.5568 115.15 32.5091 114.134 28.7841 114.134C25.0591 114.134 22.0114 115.489 19.3023 118.198C18.9636 118.537 18.9636 118.876 18.625 119.214C10.1591 112.441 5.07955 102.281 5.07955 91.4428C5.07955 81.6212 9.1432 72.477 16.2546 65.7035C18.2864 71.1223 22.0114 75.8637 26.4137 79.5891C22.0114 81.2825 18.625 85.6855 18.625 90.7657C18.625 97.5392 24.0432 102.619 30.4773 102.619V99.2326C25.7364 99.2326 22.0114 95.5071 22.0114 90.7657C22.0114 86.0242 25.7364 82.2987 30.1386 82.2987C34.8795 85.0081 39.9591 86.7015 45.7159 86.7015V83.3147C32.5091 82.976 20.9955 73.8317 17.9477 60.6233C17.2705 57.2365 16.9318 54.1885 17.2704 51.1404C18.2863 47.7536 21.6727 45.7214 25.0591 45.7214C29.8 45.7214 33.525 49.4469 33.525 54.1884H36.9114C36.9114 47.7535 31.4932 42.3346 25.0591 42.3346C22.6886 42.3346 20.6568 43.0121 18.625 44.3668C20.6568 38.2706 25.0591 32.8518 30.8159 29.1264C31.1545 28.7877 31.4932 28.449 32.1705 28.449H32.5091C35.8954 26.7556 39.6204 25.4009 43.6841 25.0622C44.7 27.7716 46.0546 30.1423 48.425 32.1743C47.4091 34.2064 46.7318 36.2385 46.7318 38.6093C46.7318 42.3347 48.0864 45.7215 50.7955 48.0922L53.1659 45.7214C51.1341 43.6894 50.1182 41.3187 50.1182 38.6093C50.1182 35.8999 51.1341 33.1905 53.1659 31.4971C56.8909 27.7717 63.6636 27.7717 67.3886 31.4971L69.7591 29.1264C64.6795 24.0462 55.5364 24.0462 50.4568 29.1264L50.1182 29.465C48.425 27.4329 47.0705 25.4008 46.3932 22.6914C46.3932 22.3527 46.3932 22.3527 46.3932 22.014V21.6754C46.3932 20.9981 46.0545 19.982 46.0545 19.3046C46.0545 17.2726 46.3932 15.2405 47.0704 13.5471C47.4091 12.8697 47.7478 11.8539 48.425 11.1765C48.425 11.1765 48.425 11.1764 48.425 10.8377C48.7637 10.1604 49.4409 9.48309 50.1182 8.80573C50.1182 8.80573 50.4568 8.80561 50.4568 8.46693C51.1341 7.78958 51.8114 7.4509 52.4887 6.77354C52.4887 6.77354 52.8273 6.77363 52.8273 6.43495C53.5045 6.09627 54.1818 5.75764 54.8591 5.41896C54.8591 5.41896 55.1978 5.41884 55.1978 5.08016C55.875 4.74148 56.5523 4.40297 57.5682 4.40297C57.9068 4.40297 57.9068 4.40297 58.2455 4.40297C59.2614 4.06429 59.9387 4.06417 60.9546 4.06417C69.0818 4.06417 75.8546 10.8378 75.8546 18.966V67.3968C75.8546 73.1544 71.1137 77.8958 65.3568 77.8958C59.6 77.8958 54.8591 73.1544 54.8591 67.3968H51.4727C51.4727 74.8477 57.5682 81.2825 65.3568 81.2825C69.4205 81.2825 73.1455 79.2506 75.8546 76.5412V135.132C73.8228 131.746 70.775 129.036 67.05 127.004C67.05 126.665 67.05 126.327 67.05 125.988C67.05 117.182 59.9386 110.409 51.4727 110.409V113.796C58.2455 113.796 63.6637 119.214 63.6637 125.988C63.6637 132.762 58.2455 138.18 51.4727 138.18V141.567C58.5841 141.567 64.6795 136.826 66.3727 130.391C72.1295 133.777 75.8546 139.874 75.8546 146.647C75.8546 156.469 68.0659 164.597 58.2455 165.275C57.9068 165.275 57.5682 165.275 57.2295 165.275C48.0864 165.613 40.2977 159.856 38.6045 151.05Z" fill="#041118"/>
</svg>
